<svg width="14" height="16" viewBox="0 0 14 16" fill="none" xmlns="http://www.w3.org/2000/svg">
<path d="M13.0982 9.61401L2.5135 15.516C2.29031 15.6402 2.03855 15.704 1.78313 15.7011C1.52771 15.6981 1.2775 15.6285 1.05726 15.4991C0.837018 15.3697 0.654386 15.1851 0.527442 14.9634C0.400497 14.7417 0.333643 14.4908 0.333496 14.2353V2.43134C0.333578 2.17581 0.400419 1.92474 0.527398 1.70299C0.654377 1.48125 0.837087 1.29652 1.05743 1.16712C1.27777 1.03772 1.5281 0.968126 1.78361 0.965242C2.03912 0.962358 2.29096 1.02628 2.51416 1.15068L13.0982 7.05201C13.3263 7.1792 13.5163 7.365 13.6486 7.5902C13.7808 7.8154 13.8506 8.07184 13.8506 8.33301C13.8506 8.59419 13.7808 8.85063 13.6486 9.07583C13.5163 9.30103 13.3263 9.48682 13.0982 9.61401Z" fill="white"/>
</svg>
