<svg width="40" height="40" viewBox="0 0 40 40" fill="none" xmlns="http://www.w3.org/2000/svg">
<rect x="1" y="1" width="38" height="38" rx="19" fill="black" fill-opacity="0.1"/>
<rect x="1" y="1" width="38" height="38" rx="19" stroke="white" stroke-width="2"/>
<path d="M21.9192 14C22.7932 14 23.2301 14.5473 23.2301 15.1743C23.2301 15.9573 22.4711 16.6817 21.483 16.6817C20.6555 16.6817 20.1729 16.2317 20.1957 15.4877C20.1957 14.862 20.7703 14.0003 21.9192 14.0003V14ZM19.2301 26C18.5403 26 18.0348 25.6087 18.5174 23.8857L19.3091 20.8303C19.4468 20.342 19.4696 20.1457 19.3091 20.1457C19.1022 20.1457 18.2076 20.483 17.6772 20.816L17.333 20.288C19.0105 18.9763 20.9403 18.2077 21.7685 18.2077C22.458 18.2077 22.5725 18.9713 22.2283 20.1457L21.3211 23.357C21.1605 23.924 21.229 24.1197 21.3903 24.1197C21.5971 24.1197 22.2754 23.8843 22.9417 23.3953L23.333 23.8837C21.7011 25.412 19.9189 26 19.2301 26Z" fill="white"/>
</svg>
